<svg xmlns="http://www.w3.org/2000/svg" width="21" height="14.438" viewBox="0 0 21 14.438">
  <g id="credit-card" transform="translate(0 -80)">
    <path id="Caminho_28" data-name="Caminho 28" d="M21,83.4V82.3A2.3,2.3,0,0,0,18.7,80H2.3A2.3,2.3,0,0,0,0,82.3V83.4a.205.205,0,0,0,.205.205h20.59A.205.205,0,0,0,21,83.4Z"/>
    <path id="Caminho_29" data-name="Caminho 29" d="M0,200.205v7.014a2.3,2.3,0,0,0,2.3,2.3H18.7a2.3,2.3,0,0,0,2.3-2.3v-7.014a.205.205,0,0,0-.205-.205H.205A.205.205,0,0,0,0,200.205Zm5.25,5.373a.656.656,0,0,1-.656.656H3.938a.656.656,0,0,1-.656-.656v-.656a.656.656,0,0,1,.656-.656h.656a.656.656,0,0,1,.656.656Z" transform="translate(0 -115.078)"/>
  </g>
</svg>
