<svg xmlns="http://www.w3.org/2000/svg" width="22.972" height="22.053" viewBox="0 0 22.972 22.053">
  <g id="Grupo_28" data-name="Grupo 28" transform="translate(0 0)">
    <path id="Caminho_9" data-name="Caminho 9" d="M152.33,21.383a3.147,3.147,0,0,0,.79-2.139,2.794,2.794,0,0,0-2.756-2.757h-3.977q.057-.2.115-.345a2.4,2.4,0,0,1,.158-.316c.067-.115.115-.2.143-.258q.258-.488.4-.8a5.874,5.874,0,0,0,.273-.862,4.477,4.477,0,0,0,.136-1.091c0-.23,0-.416-.007-.56a6.174,6.174,0,0,0-.072-.646,3.624,3.624,0,0,0-.172-.718,3.344,3.344,0,0,0-.345-.646,2.013,2.013,0,0,0-.574-.582,3.146,3.146,0,0,0-.861-.373,4.288,4.288,0,0,0-1.185-.151.883.883,0,0,0-.646.273,2.493,2.493,0,0,0-.488.718,4.274,4.274,0,0,0-.28.747q-.079.316-.179.876-.13.6-.194.869a4.6,4.6,0,0,1-.251.7,2.2,2.2,0,0,1-.445.689,21.226,21.226,0,0,0-1.45,1.723q-.7.919-1.45,1.737t-1.091.847a.942.942,0,0,0-.617.294.866.866,0,0,0-.258.625v9.2a.859.859,0,0,0,.273.639.949.949,0,0,0,.646.28,10.5,10.5,0,0,1,2.269.632q1.105.373,1.73.567t1.744.416a10.668,10.668,0,0,0,2.067.223h1.852a3.567,3.567,0,0,0,2.829-1.12,3.451,3.451,0,0,0,.7-2.6,2.793,2.793,0,0,0,.775-1.35,2.953,2.953,0,0,0,0-1.679,2.98,2.98,0,0,0,.617-1.967A3.423,3.423,0,0,0,152.33,21.383Z" transform="translate(-130.148 -9.136)" fill="#fff"/>
    <path id="Caminho_10" data-name="Caminho 10" d="M5.054,191.864H.919a.883.883,0,0,0-.646.273.883.883,0,0,0-.273.646v9.189a.884.884,0,0,0,.273.646.885.885,0,0,0,.646.273H5.054a.931.931,0,0,0,.919-.919v-9.189a.932.932,0,0,0-.919-.919ZM3.4,200.787a.9.9,0,0,1-.646.266.919.919,0,0,1-.653-1.565.91.91,0,0,1,1.3,0,.91.91,0,0,1,0,1.3Z" transform="translate(0 -182.675)" fill="#fff"/>
  </g>
</svg>
